<?xml version="1.0" standalone="no"?>
<!DOCTYPE svg PUBLIC "-//W3C//DTD SVG 20010904//EN"
 "http://www.w3.org/TR/2001/REC-SVG-20010904/DTD/svg10.dtd">
<svg version="1.0" xmlns="http://www.w3.org/2000/svg"
 width="700.000000pt" height="700.000000pt" viewBox="0 0 700.000000 700.000000"
 preserveAspectRatio="xMidYMid meet">
<metadata>
Created by potrace 1.11, written by Peter Selinger 2001-2013
</metadata>
<g transform="translate(0.000000,700.000000) scale(0.100000,-0.100000)"
fill="#000000" stroke="none">
<path d="M502 3500 l3 -2875 2978 0 2977 0 0 2875 0 2875 -2980 0 -2980 0 2
-2875z m5450 2371 c8 -1 8 -4701 -1 -4702 -21 -3 -4928 -4 -4938 -1 -10 3 -13
483 -13 2356 l0 2351 2472 -1 c1360 -1 2476 -2 2480 -3z"/>
<path d="M3349 5496 c-2 -2 -35 -6 -73 -10 -37 -3 -87 -11 -110 -16 -22 -5
-54 -11 -69 -14 -15 -3 -54 -12 -85 -21 -444 -127 -757 -418 -850 -790 -76
-302 -27 -610 130 -825 144 -196 368 -333 740 -453 193 -62 404 -125 439 -132
9 -2 49 -13 90 -25 40 -12 83 -24 96 -26 44 -8 259 -82 326 -113 204 -92 301
-218 306 -393 7 -284 -228 -500 -594 -544 -178 -21 -424 4 -602 61 -73 24 -79
27 -213 93 -167 83 -319 194 -457 331 -22 22 -45 41 -49 40 -5 0 -91 -111
-192 -247 l-182 -246 87 -89 c241 -243 488 -392 813 -491 47 -14 103 -28 125
-32 22 -3 43 -8 47 -10 3 -2 30 -7 60 -10 29 -3 56 -8 59 -10 16 -9 182 -19
339 -19 195 0 320 9 460 35 70 12 143 31 230 60 273 90 517 279 630 487 12 21
25 45 30 53 35 57 85 214 104 325 16 95 14 344 -4 425 -67 305 -230 521 -523
688 -205 117 -456 207 -937 336 -255 68 -339 95 -443 144 -199 94 -279 243
-228 428 45 160 159 262 352 313 98 26 144 32 264 31 121 0 187 -6 280 -26 39
-8 81 -17 94 -20 61 -12 204 -65 288 -107 122 -59 241 -140 333 -226 41 -39
78 -70 82 -71 4 0 13 10 19 22 7 13 31 48 53 80 23 31 47 64 54 75 7 10 66 95
131 190 l119 172 -81 73 c-44 40 -108 93 -141 118 -34 24 -63 47 -66 51 -3 3
-48 30 -100 61 -250 145 -459 214 -790 264 -42 6 -385 15 -391 10z"/>
</g>
</svg>
