<svg width="81" height="27" viewBox="0 0 81 27" fill="none" xmlns="http://www.w3.org/2000/svg">
<g clip-path="url(#clip0_12_124)">
<path d="M11.6015 18.192C9.76687 18.192 8.32154 17.6267 7.26554 16.496L8.30554 15.056C9.22287 16.0373 10.3482 16.528 11.6815 16.528C12.3962 16.528 12.9295 16.384 13.2815 16.096C13.6442 15.808 13.8255 15.4667 13.8255 15.072C13.8255 14.6667 13.6122 14.3467 13.1855 14.112C12.7589 13.8667 12.2415 13.6747 11.6335 13.536C11.0255 13.3973 10.4122 13.232 9.79354 13.04C9.18554 12.848 8.66821 12.5227 8.24154 12.064C7.81487 11.6053 7.60154 11.0133 7.60154 10.288C7.60154 9.392 7.95887 8.65067 8.67354 8.064C9.39887 7.46667 10.3375 7.168 11.4895 7.168C13.1322 7.168 14.4655 7.664 15.4895 8.656L14.4175 10.048C13.6069 9.23733 12.5775 8.832 11.3295 8.832C10.7749 8.832 10.3322 8.95467 10.0015 9.2C9.68154 9.43467 9.52154 9.75467 9.52154 10.16C9.52154 10.4267 9.63354 10.6507 9.85754 10.832C10.0922 11.0133 10.3909 11.1627 10.7535 11.28C11.1162 11.3867 11.5162 11.4933 11.9535 11.6C12.4015 11.7067 12.8442 11.84 13.2815 12C13.7295 12.1493 14.1349 12.336 14.4975 12.56C14.8602 12.784 15.1535 13.0933 15.3775 13.488C15.6122 13.8827 15.7295 14.352 15.7295 14.896C15.7295 15.856 15.3829 16.6453 14.6895 17.264C13.9962 17.8827 12.9669 18.192 11.6015 18.192ZM22.3533 18H20.4813V8.976H17.2493V7.328H25.5853V8.976H22.3533V18ZM32.7077 18H30.8357V13.568L26.6917 7.328H28.8357L31.7797 11.904L34.6917 7.328H36.8357L32.7077 13.568V18ZM46.2072 18H38.2072V16.48L43.6632 8.976H38.2072V7.328H46.0952V8.848L40.6392 16.352H46.2072V18ZM56.269 18H48.269V16.48L53.725 8.976H48.269V7.328H56.157V8.848L50.701 16.352H56.269V18ZM67.4245 16.64C66.4005 17.6747 65.0939 18.192 63.5045 18.192C61.9152 18.192 60.6085 17.6747 59.5845 16.64C58.5605 15.5947 58.0485 14.272 58.0485 12.672C58.0485 11.072 58.5605 9.75467 59.5845 8.72C60.6085 7.67467 61.9152 7.152 63.5045 7.152C65.0939 7.152 66.4005 7.67467 67.4245 8.72C68.4485 9.75467 68.9605 11.072 68.9605 12.672C68.9605 14.272 68.4485 15.5947 67.4245 16.64ZM63.5045 16.528C64.5605 16.528 65.4139 16.1653 66.0645 15.44C66.7152 14.704 67.0405 13.7813 67.0405 12.672C67.0405 11.552 66.7152 10.6293 66.0645 9.904C65.4139 9.17867 64.5605 8.816 63.5045 8.816C62.4379 8.816 61.5792 9.17867 60.9285 9.904C60.2885 10.6293 59.9685 11.552 59.9685 12.672C59.9685 13.792 60.2885 14.7147 60.9285 15.44C61.5792 16.1653 62.4379 16.528 63.5045 16.528Z" fill="black"/>
<path fill-rule="evenodd" clip-rule="evenodd" d="M74.5858 1L77 3.41421V23H3.41421L1 20.5858V1H74.5858ZM3 24L0 21V1V0H1H75L78 3L81 6V23V26V27H6L3 24Z" fill="black"/>
</g>
<defs>
<clipPath id="clip0_12_124">
<rect width="81" height="27" fill="white"/>
</clipPath>
</defs>
</svg>
